::::::: Feel-Free Presents :::::::


::::: Arthur Christmas 2011 TS x264 :::::


::Information::


Genre:Animation | Comedy | Drama
Language:English
IMDb:http://www.imdb.com/title/tt1430607/
Source:iLLUMiNATi 720p Thanks!


::Details::


Format : MPEG-4
Format profile : Base Media
Codec ID : isom
File size : 1.24 GiB
Duration : 1h 31mn
Overall bit rate : 1 950 Kbps


Video
ID : 1
Format : AVC
Format/Info : Advanced Video Codec
Format profile : High@L5.1
Format settings, CABAC : Yes
Format settings, ReFrames : 3 frames
Codec ID : avc1
Codec ID/Info : Advanced Video Coding
Duration : 1h 31mn
Bit rate mode : Variable
Bit rate : 1 500 Kbps
Maximum bit rate : 8 366 Kbps
Width : 624 pixels
Height : 264 pixels
Display aspect ratio : 2.35:1
Frame rate mode : Constant
Frame rate : 24.000 fps
Color space : YUV
Chroma subsampling : 4:2:0
Bit depth : 8 bits
Scan type : Progressive
Bits/(Pixel*Frame) : 0.379
Stream size : 982 MiB (77%)
Writing library : x264


Audio
ID : 2
Format : AAC
Format/Info : Advanced Audio Codec
Format version : Version 4
Format profile : LC
Format settings, SBR : No
Codec ID : 40
Duration : 1h 31mn
Bit rate mode : Variable
Bit rate : 444 Kbps
Maximum bit rate : 473 Kbps
Channel(s) : 6 channels
Channel positions : Front: L C R, Side: L R, LFE
Sampling rate : 48.0 KHz
Stream size : 290 MiB (23%)


::Plot::


On Christmas night at the North Pole, Santa's youngest son looks to use 
his father's high-tech operation for an urgent mission.


::Greets::


CRYS,IMAGINE,LKRG,FXG,3Li,FLAWL3SS,TA,iLLUSiON,EMBER,ETRG,BHRG,iLLUMiNATi,
MiSTERE.ViSiON,DTRG,SAFCuk009,LU,TheFalcon007,MYSTiC,PrisM,Noir,WBZ,LAP,Rx,
Kingdom,Fabreezy,HDLiTE,TWiZTED,ExtraTorrentRG.ELEKTRI4KA,MAGNAT,CM8

And to all the other p2p grps past and present


::Poster::

 
http://i.imgur.com/JXSNg.jpg


::Screens::

 
http://i.imgur.com/ap0VC.png

 
http://i.imgur.com/BsaxF.png

 
http://i.imgur.com/izExj.png


ENJOY!